<svg width="32" height="32" viewBox="0 0 32 32" fill="none" xmlns="http://www.w3.org/2000/svg">
  <!-- ProceX AI Favicon - Ant-inspired logo -->

  <!-- Cabeça (head) -->
  <circle cx="16" cy="8" r="3" fill="#16AA98"/>

  <!-- Antenas -->
  <path d="M14 6 L12 3 M18 6 L20 3" stroke="#383838" stroke-width="1.5" stroke-linecap="round"/>

  <!-- Corpo (thorax) com neural nodes -->
  <ellipse cx="16" cy="16" rx="5" ry="6" fill="#16AA98"/>
  <circle cx="16" cy="14" r="1" fill="#383838"/>
  <circle cx="14" cy="16" r="1" fill="#383838"/>
  <circle cx="18" cy="16" r="1" fill="#383838"/>
  <circle cx="16" cy="18" r="1" fill="#383838"/>

  <!-- Abdômen (abdomen) -->
  <ellipse cx="16" cy="25" rx="4" ry="5" fill="#16AA98"/>

  <!-- Pernas (6 legs) -->
  <g stroke="#383838" stroke-width="1.5" stroke-linecap="round">
    <!-- Left legs -->
    <path d="M11 13 L7 11"/>
    <path d="M11 16 L6 16"/>
    <path d="M11 19 L7 21"/>

    <!-- Right legs -->
    <path d="M21 13 L25 11"/>
    <path d="M21 16 L26 16"/>
    <path d="M21 19 L25 21"/>
  </g>

  <!-- Neural network connections (IA theme) -->
  <g stroke="#6fc2ff" stroke-width="0.5" opacity="0.6">
    <line x1="14" y1="14" x2="16" y2="16"/>
    <line x1="18" y1="14" x2="16" y2="16"/>
    <line x1="16" y1="18" x2="14" y2="16"/>
    <line x1="16" y1="18" x2="18" y2="16"/>
  </g>
</svg>
